<svg width="435" height="154" viewBox="0 0 435 154" fill="none" xmlns="http://www.w3.org/2000/svg" role="img" aria-label="Tims Bewertungen">
<path d="M126.75 6.5835C134.496 6.58367 140.833 12.9209 140.833 20.6665V147.417L112.666 119.25H14.083C6.33717 119.25 0 112.912 0 105.167V20.6665C0.000177905 12.9208 6.33728 6.5835 14.083 6.5835H126.75ZM48.0068 25.4937C41.8801 25.4974 36.0054 27.9351 31.6758 32.27C27.3463 36.6049 24.9162 42.4822 24.9199 48.6089C24.9237 54.7356 27.3614 60.6103 31.6963 64.9399L67.2529 101.022C67.5493 101.323 67.9025 101.562 68.292 101.725C68.6816 101.888 69.1001 101.972 69.5225 101.972C69.9446 101.972 70.3625 101.888 70.752 101.725C71.1416 101.562 71.4956 101.323 71.792 101.022L107.349 64.9399C109.5 62.8013 111.205 60.2567 112.367 57.4546C113.529 54.6525 114.124 51.6481 114.117 48.6147C114.119 44.0512 112.769 39.5893 110.237 35.7925C107.706 31.9958 104.106 29.0343 99.8926 27.2817C95.679 25.5292 91.0401 25.0644 86.5625 25.9458C82.0851 26.8273 77.9692 29.0152 74.7344 32.2339L69.5225 37.0874L64.3457 32.2495C60.0108 27.9201 54.1335 25.4899 48.0068 25.4937Z" fill="#EF7A1A"/>
<text x="160" y="64" fill="#EF7A1A" font-family="Arial, Helvetica, sans-serif" font-size="43" font-weight="700" letter-spacing="-0.5">Tims</text>
<text x="160" y="121" fill="#EF7A1A" font-family="Arial, Helvetica, sans-serif" font-size="43" font-weight="700" letter-spacing="-0.5">Bewertungen</text>
</svg>
